# xmcd
#
# Track frame offsets: 
#        150
#        14772
#        34217
#        50266
#        66344
#        83420
#        96473
#        110012
#        123264
#        142002
#        157439
#
# Disc length: 2342 seconds
#
# Revision: 0
# Processed by: cddbd v1.5.2PL0 Copyright (c) Steve Scherf et al.
# Submitted via: ExactAudioCopy v0.99pb5
#
DISCID=a009240b
DTITLE=Jewel - Sweet And Mild (Acoustic Bonus CD)
DYEAR=2010
DGENRE=Country
TTITLE0=No Good In Goodbye (Acoustic)
TTITLE1=I Love You Forever (Acoustic)
TTITLE2=Fading (Acoustic)
TTITLE3=What You Are (Acoustic)
TTITLE4=Bad As It Gets (Acoustic)
TTITLE5=Summer Home In Your Arms (Acoustic)
TTITLE6=Stay Here Forever (Acoustic)
TTITLE7=No More Heartaches (Acoustic)
TTITLE8=One True Thing (Acoustic)
TTITLE9=Ten (Acoustic)
TTITLE10=Satisfied (Acoustic)
EXTD=
EXTT0=
EXTT1=
EXTT2=
EXTT3=
EXTT4=
EXTT5=
EXTT6=
EXTT7=
EXTT8=
EXTT9=
EXTT10=
PLAYORDER=
